<svg xmlns="http://www.w3.org/2000/svg" id="icon-kirin" viewBox="0 0 32 32" width="100%" height="100%">
<title>kirin</title>
<g fill="black">
<path d="M21.888 29.501c-0.025 0.024-0.040 0.057-0.040 0.094 0 0.007 0.001 0.015 0.002 0.022v-0.001l0.15 0.87h0.038l0.355-0.154 0.282-0.128 0.067-0.032 0.345-0.166 0.272-0.141 0.397-0.217 0.262-0.154 0.064-0.038 0.32-0.198 0.256-0.166 0.061-0.042 0.25-0.173 0.058-0.042 0.304-0.221 0.298-0.227 0.24-0.192 0.051-0.042 0.237-0.198 0.282-0.247 0.042-0.038 0.234-0.214 0.035-0.035 0.23-0.224 0.032-0.032 0.23-0.234 0.022-0.022 0.234-0.246c0.71-0.776 1.352-1.637 1.902-2.558l0.040-0.072 0.032-0.032 0.147-0.253 0.042-0.070 0.128-0.23 0.051-0.096 0.17-0.33 0.102-0.208 0.061-0.128 0.093-0.202 0.064-0.138 0.083-0.195 0.064-0.147 0.077-0.192 0.061-0.154 0.131-0.352 0.064-0.182 0.058-0.17 0.061-0.182 0.054-0.176 0.054-0.179 0.051-0.179 0.048-0.179 0.048-0.186 0.045-0.176 0.045-0.189 0.038-0.173 0.042-0.195 0.035-0.17 0.038-0.198 0.029-0.17 0.032-0.202 0.026-0.17q0-0.102 0.029-0.205l0.022-0.166q0-0.106 0.022-0.211c0-0.054 0-0.109 0.016-0.163s0-0.144 0.019-0.214 0-0.109 0-0.163 0-0.144 0-0.218 0-0.109 0-0.16 0-0.147 0-0.221 0-0.106 0-0.157 0-0.15 0-0.227 0-0.102 0-0.157 0-0.154 0-0.23 0-0.102 0-0.154 0-0.157 0-0.234 0-0.099 0-0.147 0-0.16 0-0.24 0-0.096 0-0.144 0-0.163-0.022-0.246 0-0.093 0-0.138-0.019-0.17-0.029-0.253 0-0.086 0-0.131-0.022-0.176-0.035-0.262l-0.016-0.122c0-0.093-0.029-0.186-0.045-0.278l-0.019-0.109c-0.019-0.099-0.038-0.198-0.058-0.301l-0.038-0.080c-0.022-0.112-0.048-0.227-0.074-0.339v-0.045q-0.090-0.39-0.198-0.778c-0.054-0.198-0.115-0.39-0.179-0.586l-0.029-0.093q-0.093-0.282-0.195-0.554l-0.032-0.086q-0.214-0.563-0.467-1.104l-0.042-0.086q-0.125-0.262-0.259-0.515l-0.042-0.074c-0.093-0.173-0.186-0.346-0.285-0.515v0c-0.099-0.17-0.202-0.336-0.32-0.502l-0.051-0.080q-0.154-0.24-0.32-0.474l-0.045-0.064q-0.166-0.237-0.339-0.464v0c-0.118-0.154-0.237-0.32-0.362-0.454l-0.058-0.070q-0.182-0.218-0.368-0.429l-0.048-0.051q-0.189-0.211-0.387-0.413l-0.016-0.016q-0.198-0.205-0.406-0.403l-0.067-0.064q-0.205-0.195-0.416-0.381l-0.048-0.042q-0.211-0.182-0.429-0.358l-0.026-0.022q-0.221-0.179-0.448-0.349l-0.074-0.058q-0.224-0.166-0.458-0.32l-0.051-0.035q-0.227-0.154-0.461-0.301l-0.042-0.045q-0.237-0.15-0.483-0.291l-0.083-0.048q-0.243-0.138-0.49-0.269l-0.051-0.026q-0.24-0.125-0.486-0.243l-0.054-0.026q-0.253-0.118-0.509-0.227l-0.083-0.042q-0.256-0.109-0.515-0.208l-0.054-0.019q-0.25-0.096-0.502-0.179l-0.067-0.022q-0.259-0.090-0.525-0.17l-0.102-0.029c-0.179-0.051-0.358-0.099-0.538-0.144h-0.058l-0.518-0.147h-0.080q-0.269-0.054-0.541-0.099l-0.112-0.019c-0.182-0.029-0.368-0.058-0.554-0.080h-0.054l-0.528-0.054h-0.093q-0.275-0.022-0.55-0.035h-0.115c-0.189-0.032-0.378-0.032-0.573-0.032h-0.611l-0.371 0.019h-0.112l-0.474 0.042h-0.109l-0.378 0.045-0.144 0.019-0.406 0.064h-0.074l-0.477 0.131-0.125 0.026-0.371 0.083-0.134 0.032-0.48 0.128c-6.639 1.929-11.41 7.957-11.41 15.099 0 1.515 0.215 2.979 0.615 4.365l-0.027-0.111c0.067 0.237 0.138 0.467 0.214 0.698 0.026 0.080 0.054 0.157 0.083 0.237 0.051 0.144 0.102 0.288 0.157 0.432s0.083 0.211 0.128 0.32 0.090 0.214 0.134 0.32 0.112 0.253 0.17 0.374l0.102 0.214c0.074 0.15 0.147 0.301 0.224 0.448l0.019 0.032c2.696 4.992 7.885 8.329 13.854 8.342h0.469c1.368-0.045 2.667-0.257 3.904-0.617l-0.111 0.028c0.227-0.064 0.454-0.134 0.675-0.208l0.32-0.106 0.061-0.022 0.301-0.112 0.064-0.026 0.058-0.022-0.714-0.378c-0.018-0.009-0.039-0.015-0.061-0.015s-0.043 0.006-0.061 0.015h0.001l-0.787 0.413c-0.017 0.009-0.038 0.014-0.059 0.014-0.072 0-0.131-0.059-0.131-0.131 0-0.007 0.001-0.014 0.002-0.021v0.001l0.15-0.877c0.001-0.006 0.002-0.013 0.002-0.021 0-0.037-0.015-0.070-0.040-0.094v0l-0.64-0.621c-0.024-0.024-0.040-0.057-0.040-0.094 0-0.066 0.049-0.121 0.113-0.13h0.001l0.88-0.128c0.044-0.006 0.080-0.033 0.099-0.070v-0.001l0.394-0.797c0.022-0.043 0.066-0.071 0.117-0.071s0.095 0.029 0.116 0.071v0.001l0.394 0.797c0.020 0.038 0.056 0.064 0.099 0.070h0.001l0.88 0.128c0.064 0.009 0.113 0.064 0.113 0.13 0 0.037-0.015 0.070-0.040 0.094v0zM19.418 24.061l-0.538 0.522c-0.025 0.025-0.041 0.059-0.041 0.098 0 0.009 0.001 0.017 0.002 0.025v-0.001l0.125 0.736c0.002 0.008 0.003 0.017 0.003 0.027 0 0.076-0.062 0.138-0.138 0.138-0.024 0-0.047-0.006-0.067-0.018h0.001l-0.659-0.346c-0.019-0.010-0.041-0.016-0.064-0.016s-0.045 0.006-0.065 0.016h0.001l-0.656 0.358c-0.019 0.011-0.042 0.017-0.067 0.017-0.076 0-0.138-0.062-0.138-0.138 0-0.009 0.001-0.019 0.003-0.028v0.001l0.125-0.736c0.001-0.007 0.002-0.016 0.002-0.024 0-0.038-0.015-0.073-0.041-0.098l-0.534-0.531c-0.027-0.025-0.043-0.061-0.043-0.1 0-0.070 0.052-0.128 0.119-0.136h0.001l0.739-0.106c0.047-0.006 0.086-0.036 0.105-0.076v-0.001l0.32-0.669c0.022-0.047 0.070-0.080 0.125-0.080s0.102 0.032 0.124 0.079v0.001l0.32 0.669c0.020 0.041 0.059 0.070 0.105 0.077h0.001l0.739 0.106c0.074 0.003 0.132 0.063 0.132 0.137 0 0.039-0.016 0.074-0.042 0.099v0zM16.506 16.381l-0.8-0.778c-0.018-0.018-0.030-0.044-0.030-0.072 0-0.050 0.036-0.092 0.083-0.101h0.001l1.104-0.16c0.034-0.005 0.062-0.025 0.077-0.054v-0.001l0.493-1.002c0.017-0.033 0.052-0.056 0.091-0.056s0.074 0.022 0.091 0.055v0.001l0.496 0.986c0.015 0.029 0.043 0.050 0.076 0.054h0.001l1.104 0.16c0.048 0.009 0.084 0.051 0.084 0.101 0 0.028-0.011 0.054-0.030 0.072v0l-0.787 0.781c-0.019 0.019-0.030 0.044-0.030 0.073 0 0.006 0 0.012 0.002 0.018v-0.001l0.189 1.101c0.001 0.004 0.001 0.009 0.001 0.014 0 0.057-0.046 0.102-0.102 0.102-0.017 0-0.032-0.004-0.046-0.011h0.001l-0.989-0.518c-0.014-0.007-0.029-0.011-0.046-0.011s-0.033 0.004-0.047 0.011h0.001l-1.002 0.518c-0.013 0.007-0.029 0.011-0.046 0.011-0.057 0-0.102-0.046-0.102-0.102 0-0.005 0-0.010 0.001-0.015v0.001l0.189-1.101c0.001-0.006 0.002-0.013 0.002-0.020 0-0.027-0.010-0.052-0.028-0.070v0zM15.558 11.2l-0.448-0.438c-0.015-0.015-0.025-0.035-0.025-0.058 0-0.041 0.030-0.074 0.070-0.079v0l0.621-0.090c0.027-0.004 0.049-0.021 0.061-0.044v0l0.275-0.57c0.013-0.027 0.041-0.045 0.072-0.045s0.059 0.018 0.072 0.045v0l0.278 0.563c0.012 0.024 0.034 0.041 0.060 0.045v0l0.621 0.090c0.040 0.005 0.070 0.039 0.070 0.079 0 0.023-0.010 0.044-0.025 0.058v0l-0.451 0.445c-0.015 0.014-0.024 0.035-0.024 0.057 0 0.005 0 0.010 0.001 0.014v-0.001l0.106 0.618c0.001 0.005 0.001 0.010 0.001 0.015 0 0.044-0.036 0.080-0.080 0.080-0.013 0-0.026-0.003-0.037-0.009v0l-0.554-0.291c-0.011-0.006-0.023-0.009-0.037-0.009s-0.026 0.003-0.037 0.009v0l-0.554 0.291c-0.011 0.006-0.023 0.009-0.037 0.009-0.044 0-0.080-0.036-0.080-0.080 0-0.005 0.001-0.011 0.002-0.016v0.001l0.106-0.618c0-0.003 0-0.006 0-0.009 0-0.025-0.011-0.047-0.029-0.062v0zM14.518 7.29c0.209-0.137 0.391-0.289 0.552-0.459l0.001-0.001c-0.204 0.153-0.452 0.258-0.722 0.294l-0.008 0.001c0.274-0.148 0.51-0.318 0.722-0.514l-0.002 0.002c-0.246 0.15-0.536 0.254-0.847 0.293l-0.011 0.001c0.208-0.066 0.388-0.159 0.55-0.276l-0.006 0.004c-0.141 0.013-0.305 0.020-0.47 0.020s-0.329-0.007-0.491-0.021l0.021 0.001c0.317-0.006 0.618-0.071 0.893-0.185l-0.016 0.006c-0.041 0.005-0.088 0.008-0.136 0.008-0.137 0-0.268-0.023-0.391-0.065l0.008 0.003c0.032 0.001 0.069 0.002 0.107 0.002 0.273 0 0.537-0.041 0.786-0.116l-0.019 0.005 0.16-0.038c0.048-0.017 0.103-0.029 0.16-0.035h0.003c0.009-0.001 0.019-0.002 0.030-0.002 0.072 0 0.138 0.026 0.188 0.069v0c0.23 0.192 0.794 0.797 0.794 0.797s-0.778 0.419-1.008 0.352c-0.113-0.049-0.197-0.147-0.227-0.266l-0.001-0.003c-0.123 0.097-0.265 0.178-0.418 0.236l-0.011 0.004c0.143-0.11 0.269-0.23 0.381-0.361l0.003-0.003c-0.164 0.115-0.357 0.202-0.565 0.248l-0.011 0.002zM20.918 21.050l0.16 0.925c0.001 0.004 0.001 0.009 0.001 0.014 0 0.057-0.046 0.102-0.102 0.102-0.017 0-0.032-0.004-0.046-0.011h0.001l-0.832-0.438c-0.014-0.008-0.030-0.012-0.048-0.012s-0.034 0.004-0.049 0.012h0.001l-0.835 0.438c-0.013 0.007-0.029 0.011-0.046 0.011-0.057 0-0.102-0.046-0.102-0.102 0-0.005 0-0.010 0.001-0.015v0.001l0.16-0.925c0.001-0.005 0.001-0.011 0.001-0.017 0-0.028-0.012-0.054-0.030-0.073v0l-0.672-0.64c-0.018-0.018-0.029-0.044-0.029-0.072 0-0.051 0.037-0.093 0.086-0.101h0.001l0.931-0.134c0.034-0.005 0.062-0.025 0.077-0.054v-0.001l0.416-0.842c0.017-0.033 0.052-0.056 0.091-0.056s0.074 0.022 0.091 0.055v0.001l0.416 0.842c0.015 0.029 0.043 0.050 0.076 0.054h0.001l0.931 0.134c0.049 0.008 0.087 0.050 0.087 0.101 0 0.028-0.011 0.053-0.029 0.072v0l-0.672 0.64c-0.026 0.019-0.042 0.049-0.042 0.083 0 0.002 0 0.005 0 0.007v0zM22.288 26.81c-0.024 0.023-0.055 0.036-0.091 0.036-0.072 0-0.131-0.059-0.131-0.131 0-0.021 0.005-0.042 0.014-0.060v0.001l0.189-1.107c0.001-0.006 0.002-0.013 0.002-0.021 0-0.037-0.015-0.070-0.040-0.094v0l-0.79-0.794c-0.023-0.024-0.037-0.056-0.037-0.091 0-0.065 0.047-0.119 0.11-0.129h0.001l1.11-0.16c0.044-0.006 0.080-0.033 0.099-0.070v-0.001l0.496-1.008c0.022-0.043 0.066-0.071 0.117-0.071s0.095 0.029 0.116 0.071v0.001l0.496 1.008c0.020 0.038 0.056 0.064 0.099 0.070h0.001l0.858 0.125c-0.524-0.586-1.015-1.228-1.454-1.907l-0.037-0.061c-0.403-0.618-0.771-1.258-1.117-1.92v0c-0.045-0.083-0.218-0.429-0.304-0.595v0 0l-0.045-0.061c-0.39-0.797-0.742-1.6-1.053-2.442-0.499-1.325-0.96-2.672-1.389-4.026v0l-0.506-0.266c-0.010-0.006-0.022-0.009-0.035-0.009s-0.025 0.003-0.036 0.009v0l-0.506 0.266c-0.011 0.006-0.023 0.010-0.037 0.010-0.041 0-0.074-0.033-0.074-0.074 0-0.006 0.001-0.011 0.002-0.017v0.001l0.096-0.563c0.001-0.004 0.001-0.009 0.001-0.013 0-0.021-0.009-0.041-0.024-0.054v0l-0.41-0.4c-0.015-0.014-0.024-0.033-0.024-0.055 0-0.038 0.029-0.069 0.066-0.073v0l0.566-0.083c0.026-0.003 0.047-0.019 0.057-0.041v0l0.253-0.512c0.006-0.009 0.013-0.017 0.022-0.022v0q-0.483-1.59-0.934-3.155c0.101-0.233 0.23-0.434 0.386-0.61l-0.002 0.002c0.179-0.176 0.538-0.131 0.806-0.234 0.448-0.17 2.323-1.501 1.12-1.642-0.256-0.029-0.506-0.102-0.762-0.125s-0.662 0.102-0.931-0.054c-0.23-0.201-0.439-0.41-0.633-0.632l-0.007-0.008c-0.515-0.432-0.758-0.794-0.701-1.472 0.038-0.432 0.378-1.062 0.189-1.485-0.086-0.176-0.264-0.295-0.47-0.295-0.132 0-0.252 0.049-0.344 0.129h0.001c-0.432 0.438-0.192 1.35-0.515 1.84l-0.051 0.214c-0.085-0.035-0.145-0.118-0.145-0.214 0-0.054 0.018-0.103 0.049-0.142v0.001c0.021-0.165 0.052-0.312 0.095-0.455l-0.005 0.020c0.054-0.259 0.202-0.64 0.054-0.906-0.067-0.123-0.196-0.204-0.343-0.204-0.119 0-0.225 0.053-0.296 0.136v0.001c-0.221 0.208-0.211 0.678-0.278 0.96-0.049 0.267-0.162 0.503-0.322 0.697l0.002-0.003c-0.256 0.32-0.32 0.211-0.64 0.342-0.264 0.127-0.476 0.328-0.614 0.575l-0.004 0.007c-0.268 0.372-0.596 0.682-0.971 0.923l-0.014 0.008c-0.851 0.575-1.827 1.111-2.852 1.555l-0.118 0.045c-0.486 0.253-2.525 1.949-1.408 2.461 0.176 0.080 0.32 0 0.515 0.099 0.185 0.139 0.396 0.264 0.619 0.363l0.021 0.008c0.14 0.043 0.301 0.067 0.467 0.067s0.327-0.025 0.479-0.070l-0.012 0.003c0.32-0.102 0.56-0.397 0.902-0.397 0.269 0.061 0.504 0.14 0.728 0.24l-0.024-0.010c0.201 0.055 0.458 0.109 0.721 0.148l0.041 0.005c0.37 0.058 0.805 0.096 1.246 0.105h0.357l0.192 0.928c0.026 0.122 0.102 0.512 0.093 0.445 0.15 1.091 0.205 2.205 0.32 3.299l0.41 4.528 0.131-0.019c0.029-0.004 0.054-0.022 0.067-0.047l0.32-0.64c0.015-0.029 0.045-0.049 0.080-0.049s0.065 0.020 0.080 0.049l0.32 0.64c0.013 0.026 0.038 0.044 0.067 0.048v0l0.714 0.102c0.042 0.008 0.073 0.044 0.073 0.088 0 0.024-0.010 0.046-0.025 0.062v0l-0.525 0.493c-0.016 0.016-0.027 0.039-0.027 0.064 0 0.005 0 0.009 0.001 0.014v0l0.122 0.71c0.001 0.004 0.001 0.008 0.001 0.012 0 0.049-0.040 0.090-0.090 0.090-0.014 0-0.028-0.003-0.040-0.009h0.001l-0.64-0.32c-0.012-0.006-0.026-0.010-0.042-0.010s-0.030 0.004-0.042 0.010v0l-0.416 0.218 0.163 1.763 0.048 0.387 0.035 0.371v0.083l0.368 3.942 0.144-0.019c0.033-0.005 0.059-0.026 0.073-0.054v-0.001l0.406-0.822c0.016-0.034 0.050-0.057 0.090-0.057s0.073 0.023 0.089 0.056v0.001l0.406 0.822c0.014 0.029 0.041 0.049 0.073 0.054h0.001l0.906 0.131c0.048 0.007 0.085 0.048 0.085 0.098 0 0.028-0.012 0.053-0.030 0.071l-0.64 0.64c-0.019 0.018-0.030 0.043-0.030 0.072 0 0.006 0.001 0.013 0.002 0.019v-0.001l0.154 0.902c0.001 0.005 0.002 0.012 0.002 0.018 0 0.055-0.044 0.099-0.099 0.099-0.017 0-0.033-0.004-0.047-0.012h0.001l-0.81-0.426c-0.013-0.007-0.029-0.012-0.046-0.012s-0.033 0.004-0.047 0.012h0.001l-0.493 0.259 0.157 1.699c-0.116 0.003-0.252 0.005-0.389 0.005-4.654 0-8.82-2.094-11.605-5.39l-0.019-0.023c-0.298-0.362-0.586-0.736-0.854-1.13-1.669-2.396-2.667-5.368-2.667-8.573 0-1.001 0.097-1.978 0.283-2.925l-0.016 0.096c0.52-2.182 1.346-4.105 2.443-5.838l-0.046 0.078 0.077-0.109c0.435-0.573 1.011-0.186 0.742 0.48-0.537 1.26-0.849 2.727-0.849 4.266 0 5.445 3.905 9.979 9.067 10.952l0.069 0.011c0.621 0.121 1.336 0.19 2.067 0.19 0.196 0 0.391-0.005 0.584-0.015l-0.027 0.001-0.029-0.397c-0.15 0.007-0.325 0.012-0.502 0.012-0.713 0-1.41-0.068-2.086-0.199l0.069 0.011c-2.919-0.549-5.375-2.209-6.959-4.514l-0.024-0.037c-2.109-3.085-2.298-7.133-0.89-10.56 0.035-0.083 0.055-0.179 0.055-0.28 0-0.392-0.307-0.713-0.693-0.735h-0.002c2.787-3.444 7.013-5.628 11.75-5.628 1.295 0 2.551 0.163 3.75 0.47l-0.104-0.023c-0.166 0.136-0.271 0.341-0.271 0.57 0 0.268 0.143 0.502 0.357 0.631l0.003 0.002c3.2 1.885 5.491 5.226 5.674 8.96 0.009 0.167 0.015 0.362 0.015 0.559 0 2.426-0.801 4.665-2.153 6.467l0.020-0.028c-0.317 0.424-0.64 0.799-0.987 1.15l0.001-0.001 0.211 0.358c0.344-0.341 0.665-0.703 0.963-1.085l0.019-0.025 0.058-0.077 0.058-0.074c1.382-1.842 2.213-4.166 2.213-6.684 0-0.204-0.005-0.406-0.016-0.608l0.001 0.028c-0.248-3.837-2.371-7.13-5.453-8.996l-0.051-0.028c-0.768-0.474-0.336-1.062 0.381-0.81 2.088 0.795 3.889 1.866 5.469 3.192l-0.029-0.024c2.902 2.624 4.777 6.338 4.975 10.491l0.001 0.034c0.012 0.229 0.019 0.496 0.019 0.766 0 0.788-0.059 1.562-0.174 2.317l0.011-0.085c-0.494 3.057-1.836 5.739-3.774 7.868l0.011-0.012c-0.765-0.402-1.42-0.899-1.981-1.485l-0.003-0.003-0.762 0.742c-0.025 0.024-0.040 0.057-0.040 0.094 0 0.007 0.001 0.015 0.002 0.022v-0.001l0.189 1.107c0.001 0.006 0.002 0.013 0.002 0.021 0 0.072-0.059 0.131-0.131 0.131-0.022 0-0.042-0.005-0.060-0.014h0.001l-0.992-0.522c-0.018-0.009-0.039-0.015-0.061-0.015s-0.043 0.006-0.061 0.015h0.001zM18.061 6.842l0.554-0.394c0.076-0.054 0.17-0.087 0.272-0.087 0.005 0 0.009 0 0.014 0h-0.001l0.778 0.019c0.045 0.003 0.081 0.040 0.081 0.086 0 0.029-0.014 0.055-0.036 0.070v0l-0.701 0.467c-0.008 0.002-0.016 0.004-0.026 0.004s-0.018-0.001-0.026-0.004h0.001l-0.864-0.022c-0.038-0.009-0.066-0.043-0.066-0.084 0-0.022 0.008-0.042 0.021-0.057v0zM10.118 8.605l-0.39 0.32c-0.004 0.001-0.009 0.002-0.014 0.002s-0.010-0.001-0.015-0.002v0l-0.518 0.083c-0.004 0.001-0.009 0.002-0.014 0.002-0.025 0-0.045-0.020-0.045-0.045 0-0.015 0.008-0.029 0.020-0.037v0l0.32-0.275c0.045-0.040 0.102-0.067 0.165-0.077h0.002l0.467-0.074c0.003-0.001 0.007-0.001 0.011-0.001 0.029 0 0.052 0.023 0.052 0.052 0 0.025-0.017 0.046-0.041 0.051v0z"></path>

</g>
</svg>