<svg xmlns="http://www.w3.org/2000/svg" viewBox="0 0 409.05 213.24"><defs><style>.cls-1{fill:#fff;}.cls-2{fill:#e5004f;}</style></defs><title>logo</title><g id="レイヤー_2" data-name="レイヤー 2"><g id="レイヤー_1-2" data-name="レイヤー 1"><path class="cls-1" d="M407.47,100.14c-2-3.3-5.66-5.19-10.05-5.19h-.28l-.51,0,4.13-7.83c2.79-5.28,3-10.53.71-14.4-2-3.3-5.66-5.19-10.05-5.19h-.28c-9.52.17-16.24,4.68-22.47,15.1l-.13.23L352,114.32a16.29,16.29,0,0,0-2.77-13.1,15.6,15.6,0,0,0-12.75-5.93H273.68A7.46,7.46,0,0,0,267,99.54a10.41,10.41,0,0,0-8.79-4.26h-8.4a18,18,0,0,0,2.71-2.41,27.53,27.53,0,0,0,6.08-11.71l6.88-25.69a8.37,8.37,0,0,0-.1-5.39,9.4,9.4,0,0,0,2.85-4.88l6.47-24.1a23.74,23.74,0,0,0,.62-2.81,15.89,15.89,0,0,0-3.42-13A15.77,15.77,0,0,0,259.69,0h-38.1a14.94,14.94,0,0,0-11.1,5.21,27.53,27.53,0,0,0-6.08,11.71l-2,7.36c-.16-.24-.31-.5-.49-.73a15.6,15.6,0,0,0-12.75-5.93H150.52a7.46,7.46,0,0,0-6.65,4.26,10.41,10.41,0,0,0-8.79-4.26H97.88a13.91,13.91,0,0,0-3.13.35,14.24,14.24,0,0,0-4.49,1.91A16.46,16.46,0,0,0,87.68,5.93,15.6,15.6,0,0,0,74.94,0H30c-1.36,0-5.93.48-7.57,6.64L.39,88.85c-.74,2.77-.43,5.06.92,6.83a6.23,6.23,0,0,0,5.08,2.41H24.28a10.31,10.31,0,0,0-1.86,3.84l-22,82.22c-.74,2.77-.43,5.06.92,6.82a6.23,6.23,0,0,0,5.08,2.4H56.7a14.94,14.94,0,0,0,11.1-5.21,27.54,27.54,0,0,0,6.08-11.72l.31-1.17a6.76,6.76,0,0,0,2.53.48H97c1.36,0,5.92-.48,7.58-6.64L116,126.34a8.6,8.6,0,0,0,7.45,3.9h16.07c-5.22,19.56-6.67,25.05-7.06,26.88h-.06a16,16,0,0,0,3.28,13.23A15.75,15.75,0,0,0,148,175.76h31.83a15,15,0,0,0,11.1-5.21c.4-.43.77-.89,1.14-1.36a10.14,10.14,0,0,0,6.9,6.17l.12,0a8,8,0,0,0-2,3.51l-2.95,11a7.14,7.14,0,0,1-.75,2l-.29.14a8.32,8.32,0,0,0-4.92,5.86l-.63,2.33a6.43,6.43,0,0,0,1,5.63,6.22,6.22,0,0,0,5,2.39,7,7,0,0,0,1.84-.25,19,19,0,0,0,10.88-7.59,12,12,0,0,0,8,7.52,6.73,6.73,0,0,0,2,.32,7.18,7.18,0,0,0,6.39-4.06,6.53,6.53,0,0,0,1,1.78,6.68,6.68,0,0,0,5.36,2.58h8.86c5.57,0,10-1.15,13.59-3.56a6.48,6.48,0,0,0,.61,1,6.68,6.68,0,0,0,5.36,2.58h2a8.09,8.09,0,0,0,7.67-5.95l.81-3a33.27,33.27,0,0,0,6.69.62h3.68a7.65,7.65,0,0,0,2.81-.55L281,200a6.8,6.8,0,0,0,1.11,6,6.68,6.68,0,0,0,5.36,2.58h5.2c12.33,0,19.32-5.6,22.68-18.14l1.2-4.48,7.26,7.51-.79,11.12a8.2,8.2,0,0,0,8.17,8.69,8.33,8.33,0,0,0,3.6-.83l10-4.86,10.31,4.17a8.17,8.17,0,0,0,3,.59,8.32,8.32,0,0,0,5.05-1.73,8.22,8.22,0,0,0,3.06-7.58l-1.54-11,7.13-8.5a8.1,8.1,0,0,0-.58-11.1c4.66-2.44,8.49-6.62,11.69-12.71l23.81-45.15C409.54,109.26,409.8,104,407.47,100.14Z"/><path class="cls-2" d="M204.24,103.88a5.35,5.35,0,0,0-5.5-3.6H161.55a9.91,9.91,0,0,0-7.42,3.6,22.54,22.54,0,0,0-4.93,9.62S137.35,157.83,137.35,158c-1.23,7.18,3.31,12.8,10.67,12.8h31.83a9.91,9.91,0,0,0,7.43-3.6,22.54,22.54,0,0,0,4.92-9.62l2.36-8.81q.79-2.93-1.17-2.94H173.12q-2,0-2.74,2.94l-2.4,8.73h-4.68l4.37-16.07H189.2c4.15,0,4.94-.81,6.42-2.42a15.05,15.05,0,0,0,3.28-6.39L204,113.5Q205.62,107.48,204.24,103.88Zm-35.57,27.23,4.8-17.94h6.43l-4.8,17.94Z"/><path class="cls-2" d="M189.2,22.62H150.52q-2,0-2.74,2.94l-17.31,64.6q-.79,2.94,1.17,2.94h20.27q2,0,2.74-2.94l14.63-54.64h6.43L161.09,90.15q-.79,2.94,1.17,2.94h20.28q2,0,2.74-2.94l14.3-53.36C201.68,29,197,22.62,189.2,22.62Z"/><path class="cls-2" d="M140.57,26.21a5.35,5.35,0,0,0-5.49-3.6H97.88a8.9,8.9,0,0,0-2,.23,10.63,10.63,0,0,0-5.42,3.37,22.56,22.56,0,0,0-4.93,9.62l-2.36,8.81q-.79,2.94,1.17,2.93H100.7a6.61,6.61,0,0,0,5-2.42,15.11,15.11,0,0,0,3.28-6.39l.86-3.26h6.43L111.82,52H95.38c-7.83,0-15.87,6.35-18,14.17L73.73,79.87q-1.61,6-.23,9.62a5.15,5.15,0,0,0,3.62,3.37,7.41,7.41,0,0,0,1.89.23h40.13a6.61,6.61,0,0,0,5-2.42,15.12,15.12,0,0,0,3.28-6.39l13-48.45Q142,29.81,140.57,26.21Zm-31.5,36L104.3,79.8H97.88l4.76-17.54Z"/><path class="cls-2" d="M263.73,103.88a5.35,5.35,0,0,0-5.5-3.6H221a8.91,8.91,0,0,0-2,.23,10.62,10.62,0,0,0-5.42,3.37,22.54,22.54,0,0,0-4.93,9.62l-2.36,8.81q-.79,2.94,1.17,2.93h16.36a6.61,6.61,0,0,0,5-2.42,15.11,15.11,0,0,0,3.28-6.39l.86-3.26h6.43L235,129.65H218.54c-7.83,0-15.87,6.35-18,14.17l-3.68,13.72q-1.61,6-.23,9.62a5.14,5.14,0,0,0,3.61,3.37,7.41,7.41,0,0,0,1.89.23h40.13a6.61,6.61,0,0,0,5-2.42,15.11,15.11,0,0,0,3.28-6.39l13-48.45Q265.12,107.48,263.73,103.88Zm-31.5,36-4.76,17.54H221l4.76-17.54Z"/><path class="cls-2" d="M336.44,100.29H273.68q-2,0-2.74,2.94l-17.31,64.6q-.79,2.94,1.17,2.94h20.28q2,0,2.74-2.94l14.63-54.64h6.43l-14.63,54.64q-.79,2.94,1.17,2.94h13.73q2,0,2.74-2.94l14.63-54.64H323l-14.63,54.64q-.79,2.94,1.17,2.94h20.28q2,0,2.74-2.94l14.3-53.36C348.91,106.63,344.27,100.29,336.44,100.29Z"/><path class="cls-2" d="M74.94,100.29H30q-2,0-2.74,2.94l-22,82.21c-.52,2-.14,2.94,1.17,2.94H56.7a9.91,9.91,0,0,0,7.43-3.6,22.52,22.52,0,0,0,4.92-9.62L71,168l0-.16,14.3-53.36C87.41,106.63,82.76,100.29,74.94,100.29Zm-39.68,74.8,16.64-61.91h6.43L41.69,175.09Z"/><path class="cls-2" d="M270.4,17.54C271.48,10.48,267,5,259.69,5h-38.1a9.91,9.91,0,0,0-7.42,3.6,22.52,22.52,0,0,0-4.93,9.62L192.72,79.87q-1.61,6-.23,9.62a5.35,5.35,0,0,0,5.49,3.6h43.46a9.9,9.9,0,0,0,7.42-3.6,22.51,22.51,0,0,0,4.93-9.62l6.88-25.69q.79-2.93-1.17-2.94H234l-4.52,16.88h4.78l-1.18,4.41H222l14.63-54.64h6.43l-7,26c-.53,2-.14,2.94,1.17,2.94h23.41c1.3,0,2.22-1,2.74-2.94l6.49-24.19A18.83,18.83,0,0,0,270.4,17.54Z"/><path class="cls-2" d="M74.94,5H30q-2,0-2.74,2.94l-22,82.21q-.79,2.94,1.17,2.94H56.7a9.91,9.91,0,0,0,7.42-3.6,22.52,22.52,0,0,0,4.93-9.62l5.9-22a10.62,10.62,0,0,0,.14-6.39A3.56,3.56,0,0,0,71.44,49a6.61,6.61,0,0,0,5-2.42,14.1,14.1,0,0,0,2.79-4.86c.26-.92,6.13-22.59,6.13-22.59C87.41,11.35,82.76,5,74.94,5ZM41.69,79.8H35.25l6.81-25.18h6.43Zm3.37-36.33L51.9,17.89h6.43L51.48,43.47Z"/><path class="cls-2" d="M114.37,113.18,99.74,167.82Q99,170.76,97,170.76H76.72q-2,0-1.17-2.94l17.31-64.6q.79-2.94,2.75-2.94h44a5.35,5.35,0,0,1,5.5,3.6c.92,2.4.14,8.22-.94,12.23l-1.62,6.2q-.79,2.94-2.74,2.93H123.48a3.55,3.55,0,0,1-3.66-2.42q-.92-2.42.14-6.38l.84-3.26Z"/><path class="cls-2" d="M194.17,203.15a2.22,2.22,0,0,1-.59.09c-1,0-1.46-.69-1.18-1.73l.63-2.33c1.12-4.19,4-.78,6-8l2.95-11a3.1,3.1,0,0,1,2.84-2.24h1.73a1.65,1.65,0,0,1,1.64,2.24l-2.76,10.31C203.53,197.44,199.63,201.74,194.17,203.15Zm22.12.09a1.77,1.77,0,0,1-.55-.09c-4.7-1.4-6.3-5.71-4.44-12.64l2.76-10.31A3.1,3.1,0,0,1,216.9,178h1.73a1.65,1.65,0,0,1,1.64,2.24l-2.94,11c-1.93,7.2,2.81,3.77,1.68,8l-.62,2.33A2.23,2.23,0,0,1,216.29,203.24Z"/><path class="cls-2" d="M278.31,195.2h-3.68c-4.18,0-7.7-.71-10.13-2.12l-2.2,8.22a3.1,3.1,0,0,1-2.84,2.24h-2a1.65,1.65,0,0,1-1.64-2.24l5.65-21.1a3.1,3.1,0,0,1,2.84-2.24h2a1.65,1.65,0,0,1,1.64,2.24l-1.66,6.19c-.27,1,5.65,2.57,10,2.57H280a1.65,1.65,0,0,1,1.64,2.24l-.47,1.76A3.1,3.1,0,0,1,278.31,195.2Z"/><path class="cls-2" d="M288.49,193.38h-1.77a1.65,1.65,0,0,1-1.64-2.24l2.59-9.68a3.1,3.1,0,0,1,2.84-2.24h1.76a1.65,1.65,0,0,1,1.64,2.24l-2.59,9.68A3.1,3.1,0,0,1,288.49,193.38Zm4.21,10.16h-5.2a1.65,1.65,0,0,1-1.64-2.24l.46-1.73a3.1,3.1,0,0,1,2.84-2.24h5.38c5.62,0,8.2-2.48,9.76-8.31l2-7.56a3.1,3.1,0,0,1,2.84-2.24H311a1.65,1.65,0,0,1,1.64,2.24l-2.05,7.65C307.58,200.19,302.15,203.54,292.7,203.54Z"/><path class="cls-2" d="M237.87,203.54H229a1.65,1.65,0,0,1-1.64-2.24l.46-1.73a3.1,3.1,0,0,1,2.84-2.24h9c5.62,0,8.19-2.48,9.75-8.31l2-7.56a3.11,3.11,0,0,1,2.84-2.24h1.79a1.65,1.65,0,0,1,1.64,2.24l-2.05,7.65C252.75,200.19,247.31,203.54,237.87,203.54Z"/><path class="cls-2" d="M242.35,185.63H234a1.65,1.65,0,0,1-1.64-2.24l.52-1.94a3.1,3.1,0,0,1,2.84-2.24h8.37a1.65,1.65,0,0,1,1.64,2.24l-.52,1.94A3.1,3.1,0,0,1,242.35,185.63Z"/><path class="cls-2" d="M275.06,184.47a.46.46,0,0,0,.18-.41l-.2-1.87,1.26-1.4a.47.47,0,0,0,.09-.44.46.46,0,0,0-.34-.3l-1.84-.39-.94-1.63a.45.45,0,0,0-.39-.22.45.45,0,0,0-.39.22l-.94,1.63-1.84.39a.45.45,0,0,0-.33.3.39.39,0,0,0,0,.27.48.48,0,0,0,.09.17l1.26,1.4-.2,1.88a.47.47,0,0,0,.19.41.45.45,0,0,0,.45,0l1.72-.77,1.72.77A.47.47,0,0,0,275.06,184.47Z"/><path class="cls-2" d="M281.72,186a.44.44,0,0,0,.17-.39l-.18-1.77,1.19-1.33a.43.43,0,0,0,.09-.42.41.41,0,0,0-.32-.28l-1.74-.37-.89-1.54a.42.42,0,0,0-.37-.21.43.43,0,0,0-.37.21l-.89,1.54-1.75.37a.42.42,0,0,0-.31.28.43.43,0,0,0,0,.26.43.43,0,0,0,.09.15l1.19,1.32-.19,1.77a.43.43,0,0,0,.17.39.42.42,0,0,0,.42,0l1.63-.72,1.63.73A.44.44,0,0,0,281.72,186Z"/><path class="cls-2" d="M226.61,185.34a.46.46,0,0,0,.18-.4l-.19-1.83,1.23-1.37a.44.44,0,0,0-.23-.72l-1.8-.38-.92-1.59a.44.44,0,0,0-.76,0l-.92,1.59-1.8.38a.44.44,0,0,0-.33.29.45.45,0,0,0,0,.27.44.44,0,0,0,.09.16l1.23,1.37-.19,1.83a.44.44,0,0,0,.18.4.43.43,0,0,0,.44,0l1.68-.74,1.68.75A.45.45,0,0,0,226.61,185.34Z"/><path class="cls-2" d="M230.93,179.89a.43.43,0,0,0,.17-.39l-.18-1.77,1.19-1.32a.42.42,0,0,0-.23-.7l-1.75-.37-.89-1.55a.44.44,0,0,0-.37-.21.43.43,0,0,0-.37.21l-.89,1.54-1.74.37a.42.42,0,0,0-.32.29.36.36,0,0,0,0,.26.38.38,0,0,0,.09.16l1.19,1.32-.19,1.78a.43.43,0,0,0,.6.43l1.63-.72,1.63.72A.43.43,0,0,0,230.93,179.89Z"/><path class="cls-2" d="M360.1,206.64a3.18,3.18,0,0,0,1.19-3l-1.85-13.19,8.56-10.2a3.17,3.17,0,0,0-1.88-5.18L353,172.81l-7.05-11.3a3.18,3.18,0,0,0-5.51.19l-6.25,11.76-12.94,3.23a3.2,3.2,0,0,0-2.29,2.2,3.11,3.11,0,0,0,.07,2,3.38,3.38,0,0,0,.7,1.13l9.26,9.58L328,204.85a3.2,3.2,0,0,0,4.59,3.07l12-5.83,12.35,5A3.22,3.22,0,0,0,360.1,206.64Z"/><path class="cls-2" d="M397.22,100c-3.6.06-7.73,1.86-11.32,4.62l10.43-19.76c3.63-6.88,1.34-12.37-5.11-12.26S379,75,373,85.22l-23.81,45.15c-3.63,6.88-1.34,12.37,5.12,12.26,3.6-.06,7.73-1.86,11.32-4.62l-10.43,19.77c-3.63,6.88-1.34,12.37,5.12,12.26s12.82-2.34,18.26-12.67l23.81-45.15C406,105.33,403.68,99.84,397.22,100Z"/></g></g></svg>